
<?xml version="1.0" encoding="utf-8"?>
<!-- Generator: Adobe Illustrator 16.0.0, SVG Export Plug-In . SVG Version: 6.00 Build 0)  -->
<!DOCTYPE svg PUBLIC "-//W3C//DTD SVG 1.1//EN" "http://www.w3.org/Graphics/SVG/1.1/DTD/svg11.dtd">
<svg version="1.1" id="Layer_12" xmlns="http://www.w3.org/2000/svg" xmlns:xlink="http://www.w3.org/1999/xlink" x="0px" y="0px"
	 width="200px" height="200px" viewBox="0 0 180 180" enable-background="new 0 0 512 512" xml:space="preserve">
   <path
       d="m 28.359375,180.51015 c 0,0 -10.85072,-48.37738 0.777508,-48.63 11.628228,-0.25262 11.508935,-29.65265 11.508935,-29.65265 0,0 -9.937079,2.05043 -10.193207,-7.443864 -0.256129,-9.494293 -0.292618,-7.682447 -0.292618,-7.682447 0,0 -12.079435,-14.021801 -11.970668,-33.875609 0.108766,-19.853808 16.81816,-21.871959 16.81816,-21.871959 0,0 11.066149,-1.64694 15.57471,1.451862 4.508561,3.098802 10.937734,6.422857 9.975674,19.270677 -0.96206,12.84782 -4.00262,27.976937 -7.675431,31.461686 -3.67281,3.48475 -3.11003,16.733954 -3.11003,16.733954 l 0.218236,20.18853 c 0,0 0.526291,5.36326 21.76249,3.80123 21.2362,-1.56203 15.943114,-43.146056 15.943114,-43.146056 0,0 -3.458785,-0.367702 -4.798372,-2.21744 0.0807,-2.18867 -1.974644,-4.21033 2.893198,-8.063483 4.867843,-3.853153 8.970809,4.873456 7.436144,7.441757 -1.534665,2.568301 -4.989241,3.508608 -4.989241,3.508608 L 87.6359,82.398251"
        class="drawing"/>
    <path
       d="M 89.816149,70.791776 C 101.55735,54.262023 101.74401,54.153256 101.74401,54.153256 l 0.19648,-0.148063"
        class="drawing"/>
    <path
       d="M 87.346089,56.106849 V 31.690447 c 0,0 -2.09113,-13.265695 13.265691,-13.265695 h 31.72098 c 0,0 9.433,1.625535 10.1415,-14.826246 l 0.14035,-3.25887263"
       class="drawing"
       />
    <path
       d="M 58.998643,30.668039 C 67.450178,18.549308 67.613679,18.549308 67.613679,18.549308"
        />
    <path
       d="M 20.012397,32.297436 C 14.462481,22.851563 14.30319,22.065634 14.30319,22.065634"
       class="drawing"/>
    <path
       d="m 41.065447,23.535741 c -0.01684,-9.4564 -0.01684,-9.4564 -0.01684,-9.4564"
       class="drawing"/>
    <path
       style="fill:none;fill-opacity:1;stroke:#000000;stroke-width:1.4;stroke-dasharray:none;stroke-opacity:1"
       d="M 35.382906,81.913361 C 30.167711,66.180763 30.932588,67.75683 30.167711,66.180763 29.402835,64.604697 26.092113,52.565962 30.722773,54.469732 c 4.630661,1.903771 3.06512,10.602311 3.06512,10.602311 0,0 -4.472773,3.899467 -2.543039,-5.410975 1.929734,-9.310441 6.079014,-13.278677 6.104978,-2.350065 0.02596,10.928612 -8.08664,7.878228 -1.21468,2.260245 6.871959,-5.617983 11.215615,-7.085282 6.70144,-0.289109 -4.514174,6.796173 -11.83313,5.613772 -4.334534,0.771894 7.498597,-4.841879 15.528397,-8.668367 11.344733,-0.204903 -4.183664,8.463464 -14.034431,1.055389 -6.502152,3.212481 7.532279,2.157092 12.783963,-4.928892 6.227077,6.849504 C 43.01483,81.689512 43.01483,81.689512 43.01483,81.689512"
       class="drawing"/>
    <path
       d="m 105.02386,128.00313 c 0,0 -2.95776,-13.11587 11.13,-12.90185 14.08777,0.21403 25.15041,-0.10806 25.15041,-0.10806 0,0 8.48311,-0.25824 8.61924,10.91107 0.13614,11.1693 -7.60315,12.41415 -7.60315,12.41415 l -27.9222,-0.2042 c 0,0 -8.69153,1.64834 -9.3743,-10.11111 z"
       class="drawing"/>
    <path
       d="m 124.25524,114.67534 c -9.35956,-11.0058 -10.5174,-11.57209 -10.5174,-11.57209"
       class="drawing"/>
    <path
       d="m 131.93348,114.96304 c 6.88248,-13.09974 6.88248,-13.09974 6.88248,-13.09974"
       class="drawing"/>
    <path
       d="m 113.08454,122.1585 c 3.71071,-4.13314 7.11686,1.07223 7.11686,1.07223 0,0 1.77325,3.79421 -1.68273,3.94929 -3.45597,0.15508 -5.96463,-0.51226 -6.04112,-2.68338 -0.0765,-2.17113 0.60699,-2.33814 0.60699,-2.33814 z"
       class="drawing"/>
    <path
       d="m 135.27004,122.15943 c 3.71071,-4.13314 7.11686,1.07223 7.11686,1.07223 0,0 1.77325,3.79421 -1.68273,3.94929 -3.45597,0.15508 -5.96463,-0.51226 -6.04112,-2.68338 -0.0765,-2.17113 0.60699,-2.33814 0.60699,-2.33814 z"
         class="drawing"/>
    <path
       d="m 114.35184,130.43811 c 0,0 10.30478,7.55824 22.72034,1.01258 12.41556,-6.54566 9.34272,-3.65527 9.34272,-3.65527"
       id="path1196" class="drawing"/>
    <path
       d="m 49.975907,0.64909244 c -0.17543,6.81792656 6.375141,5.36325786 6.375141,5.36325786 0,0 62.278492,-0.8855726 68.365232,-1.0750375 6.08673,-0.1894648 30.31437,-1.781671 30.31647,31.0392502 0.002,32.820921 -2.76478,49.371725 -0.39787,49.499438 2.3669,0.127714 14.88421,0.0028 14.88421,0.0028 0,0 7.45018,-1.849738 7.19335,16.484849 -0.25683,18.33458 -0.45822,25.99878 -0.45822,25.99878 0,0 -14.85475,-0.0267 -26.0444,0.15508"
class="drawing"
       />
    <path
       d="m 122.55847,139.02437 c 0.25473,12.53345 0.25473,12.53345 0.25473,12.53345 l -0.3249,27.77133 -0.26665,0.0526"
       class="drawing"/>
</svg>