<?xml version="1.0" encoding="utf-8"?>
<!-- Generator: Adobe Illustrator 16.0.0, SVG Export Plug-In . SVG Version: 6.00 Build 0)  -->
<!DOCTYPE svg PUBLIC "-//W3C//DTD SVG 1.0//EN" "http://www.w3.org/TR/2001/REC-SVG-20010904/DTD/svg10.dtd">
<svg version="1.0" id="Layer_1" xmlns="http://www.w3.org/2000/svg" xmlns:xlink="http://www.w3.org/1999/xlink" x="0px" y="0px"
	 width="100px" height="100px" viewBox="0 0 100 100" enable-background="new 0 0 100 100" xml:space="preserve">
<path d="M87.305,36.731L56.536,21.348c-3.594-1.797-9.479-1.797-13.072,0L12.695,36.731C10.898,37.631,10,38.814,10,40v40h6.667
	V45.254l6.666,3.332v19.432c17.78,7.355,36.85,6.816,53.334-0.014V48.586l10.638-5.318C90.898,41.471,90.898,38.531,87.305,36.731z
	 M70,63.389c-13.034,4.385-26.96,4.387-40,0.01V51.92l13.464,6.732c3.594,1.797,9.479,1.797,13.072,0L70,51.92V63.389z
	 M53.555,52.688C52.933,53,51.673,53.332,50,53.332S47.067,53,46.445,52.688L21.074,40.003l25.371-12.692
	C47.067,27,48.327,26.666,50,26.666s2.933,0.334,3.555,0.645l25.374,12.686L53.555,52.688z"/>
</svg>
